<svg xmlns="http://www.w3.org/2000/svg" xmlns:xlink="http://www.w3.org/1999/xlink" width="1366" zoomAndPan="magnify" viewBox="0 0 1024.5 576" height="768" preserveAspectRatio="xMidYMid meet" version="1.0"><defs><g/><clipPath id="4bab457611"><path d="M 316.824219 121.144531 L 650.535156 121.144531 L 650.535156 454.855469 L 316.824219 454.855469 Z M 316.824219 121.144531 " clip-rule="nonzero"/></clipPath><clipPath id="a9f6d49cfe"><path d="M 483.679688 121.144531 C 391.527344 121.144531 316.824219 195.847656 316.824219 288 C 316.824219 380.152344 391.527344 454.855469 483.679688 454.855469 C 575.832031 454.855469 650.535156 380.152344 650.535156 288 C 650.535156 195.847656 575.832031 121.144531 483.679688 121.144531 Z M 483.679688 121.144531 " clip-rule="nonzero"/></clipPath><clipPath id="5a71bb8427"><path d="M 0.824219 0.144531 L 334.535156 0.144531 L 334.535156 333.855469 L 0.824219 333.855469 Z M 0.824219 0.144531 " clip-rule="nonzero"/></clipPath><clipPath id="844b26ee69"><path d="M 167.679688 0.144531 C 75.527344 0.144531 0.824219 74.847656 0.824219 167 C 0.824219 259.152344 75.527344 333.855469 167.679688 333.855469 C 259.832031 333.855469 334.535156 259.152344 334.535156 167 C 334.535156 74.847656 259.832031 0.144531 167.679688 0.144531 Z M 167.679688 0.144531 " clip-rule="nonzero"/></clipPath><clipPath id="79662398ec"><rect x="0" width="335" y="0" height="334"/></clipPath><clipPath id="6dbebbba4a"><path d="M 322.394531 126.714844 L 644.960938 126.714844 L 644.960938 449.285156 L 322.394531 449.285156 Z M 322.394531 126.714844 " clip-rule="nonzero"/></clipPath><clipPath id="67f30cc50b"><path d="M 483.679688 126.714844 C 394.605469 126.714844 322.394531 198.925781 322.394531 288 C 322.394531 377.074219 394.605469 449.285156 483.679688 449.285156 C 572.753906 449.285156 644.960938 377.074219 644.960938 288 C 644.960938 198.925781 572.753906 126.714844 483.679688 126.714844 Z M 483.679688 126.714844 " clip-rule="nonzero"/></clipPath><clipPath id="09146ceda9"><path d="M 0.394531 0.714844 L 322.960938 0.714844 L 322.960938 323.285156 L 0.394531 323.285156 Z M 0.394531 0.714844 " clip-rule="nonzero"/></clipPath><clipPath id="cadc281451"><path d="M 161.679688 0.714844 C 72.605469 0.714844 0.394531 72.925781 0.394531 162 C 0.394531 251.074219 72.605469 323.285156 161.679688 323.285156 C 250.753906 323.285156 322.960938 251.074219 322.960938 162 C 322.960938 72.925781 250.753906 0.714844 161.679688 0.714844 Z M 161.679688 0.714844 " clip-rule="nonzero"/></clipPath><clipPath id="43df7ddee3"><rect x="0" width="323" y="0" height="324"/></clipPath><clipPath id="f36994bcde"><path d="M 421.875 251.773438 L 903.738281 251.773438 L 903.738281 324.226562 L 421.875 324.226562 Z M 421.875 251.773438 " clip-rule="nonzero"/></clipPath><clipPath id="b3a17b3d53"><path d="M 0.875 0.773438 L 482.738281 0.773438 L 482.738281 73.226562 L 0.875 73.226562 Z M 0.875 0.773438 " clip-rule="nonzero"/></clipPath><clipPath id="c7ba649f74"><rect x="0" width="483" y="0" height="74"/></clipPath><clipPath id="c8a67f9c58"><path d="M 333.296875 137.617188 L 634.0625 137.617188 L 634.0625 438.382812 L 333.296875 438.382812 Z M 333.296875 137.617188 " clip-rule="nonzero"/></clipPath><clipPath id="f1cc05c608"><path d="M 483.679688 137.617188 C 400.625 137.617188 333.296875 204.945312 333.296875 288 C 333.296875 371.054688 400.625 438.382812 483.679688 438.382812 C 566.734375 438.382812 634.0625 371.054688 634.0625 288 C 634.0625 204.945312 566.734375 137.617188 483.679688 137.617188 Z M 483.679688 137.617188 " clip-rule="nonzero"/></clipPath><clipPath id="54909b5f38"><path d="M 0.296875 0.617188 L 301.0625 0.617188 L 301.0625 301.382812 L 0.296875 301.382812 Z M 0.296875 0.617188 " clip-rule="nonzero"/></clipPath><clipPath id="45421c7be9"><path d="M 150.679688 0.617188 C 67.625 0.617188 0.296875 67.945312 0.296875 151 C 0.296875 234.054688 67.625 301.382812 150.679688 301.382812 C 233.734375 301.382812 301.0625 234.054688 301.0625 151 C 301.0625 67.945312 233.734375 0.617188 150.679688 0.617188 Z M 150.679688 0.617188 " clip-rule="nonzero"/></clipPath><clipPath id="c3175471c8"><rect x="0" width="302" y="0" height="302"/></clipPath><clipPath id="4f79afc22f"><rect x="0" width="539" y="0" height="104"/></clipPath></defs><g clip-path="url(#4bab457611)"><g clip-path="url(#a9f6d49cfe)"><g transform="matrix(1, 0, 0, 1, 316, 121)"><g clip-path="url(#79662398ec)"><g clip-path="url(#5a71bb8427)"><g clip-path="url(#844b26ee69)"><path fill="#f3f4f6" d="M 0.824219 0.144531 L 334.535156 0.144531 L 334.535156 333.855469 L 0.824219 333.855469 Z M 0.824219 0.144531 " fill-opacity="1" fill-rule="nonzero"/></g></g></g></g></g></g><g clip-path="url(#6dbebbba4a)"><g clip-path="url(#67f30cc50b)"><g transform="matrix(1, 0, 0, 1, 322, 126)"><g clip-path="url(#43df7ddee3)"><g clip-path="url(#09146ceda9)"><g clip-path="url(#cadc281451)"><path fill="#1e3a5f" d="M 0.394531 0.714844 L 322.960938 0.714844 L 322.960938 323.285156 L 0.394531 323.285156 Z M 0.394531 0.714844 " fill-opacity="1" fill-rule="nonzero"/></g></g></g></g></g></g><g clip-path="url(#f36994bcde)"><g transform="matrix(1, 0, 0, 1, 421, 251)"><g clip-path="url(#c7ba649f74)"><g clip-path="url(#b3a17b3d53)"><path fill="#1e3a5f" d="M 0.875 0.773438 L 482.875 0.773438 L 482.875 73.226562 L 0.875 73.226562 Z M 0.875 0.773438 " fill-opacity="1" fill-rule="nonzero"/></g></g></g></g><g clip-path="url(#c8a67f9c58)"><g clip-path="url(#f1cc05c608)"><g transform="matrix(1, 0, 0, 1, 333, 137)"><g clip-path="url(#c3175471c8)"><g clip-path="url(#54909b5f38)"><g clip-path="url(#45421c7be9)"><path fill="#2563eb" d="M 0.296875 0.617188 L 301.0625 0.617188 L 301.0625 301.382812 L 0.296875 301.382812 Z M 0.296875 0.617188 " fill-opacity="1" fill-rule="nonzero"/></g></g></g></g></g></g><g transform="matrix(1, 0, 0, 1, 351, 236)"><g clip-path="url(#4f79afc22f)"><g fill="#f3f4f6" fill-opacity="1"><g transform="translate(0.623642, 82.67173)"><g><path d="M 7.171875 0 L 7.171875 -61.828125 L 29.171875 -61.828125 C 33.460938 -61.828125 37.023438 -61.097656 39.859375 -59.640625 C 42.691406 -58.191406 44.820312 -56.238281 46.25 -53.78125 C 47.675781 -51.320312 48.390625 -48.539062 48.390625 -45.4375 C 48.390625 -42.832031 47.929688 -40.664062 47.015625 -38.9375 C 46.097656 -37.207031 44.878906 -35.816406 43.359375 -34.765625 C 41.835938 -33.722656 40.140625 -32.921875 38.265625 -32.359375 L 38.265625 -31.875 C 40.304688 -31.707031 42.28125 -31.019531 44.1875 -29.8125 C 46.101562 -28.613281 47.6875 -26.910156 48.9375 -24.703125 C 50.195312 -22.503906 50.828125 -19.832031 50.828125 -16.6875 C 50.828125 -13.476562 50.09375 -10.617188 48.625 -8.109375 C 47.164062 -5.609375 44.882812 -3.628906 41.78125 -2.171875 C 38.6875 -0.722656 34.691406 0 29.796875 0 Z M 14.984375 -6.890625 L 29.625 -6.890625 C 34.414062 -6.890625 37.878906 -7.804688 40.015625 -9.640625 C 42.160156 -11.484375 43.234375 -13.832031 43.234375 -16.6875 C 43.234375 -18.78125 42.703125 -20.691406 41.640625 -22.421875 C 40.578125 -24.148438 39.0625 -25.519531 37.09375 -26.53125 C 35.132812 -27.539062 32.785156 -28.046875 30.046875 -28.046875 L 14.984375 -28.046875 Z M 14.984375 -34.6875 L 28.921875 -34.6875 C 31.210938 -34.6875 33.257812 -35.113281 35.0625 -35.96875 C 36.863281 -36.832031 38.28125 -38.050781 39.3125 -39.625 C 40.351562 -41.207031 40.875 -43.0625 40.875 -45.1875 C 40.875 -47.976562 39.90625 -50.300781 37.96875 -52.15625 C 36.03125 -54.007812 33.082031 -54.9375 29.125 -54.9375 L 14.984375 -54.9375 Z M 14.984375 -34.6875 "/></g></g></g><g fill="#f3f4f6" fill-opacity="1"><g transform="translate(55.93267, 82.67173)"><g><path d="M 22.078125 0.625 C 18.972656 0.625 16.234375 -0.015625 13.859375 -1.296875 C 11.484375 -2.585938 9.625 -4.523438 8.28125 -7.109375 C 6.9375 -9.703125 6.265625 -12.945312 6.265625 -16.84375 L 6.265625 -45.8125 L 13.65625 -45.8125 L 13.65625 -17.46875 C 13.65625 -13.84375 14.585938 -11.023438 16.453125 -9.015625 C 18.316406 -7.015625 20.867188 -6.015625 24.109375 -6.015625 C 26.296875 -6.015625 28.265625 -6.488281 30.015625 -7.4375 C 31.773438 -8.394531 33.164062 -9.800781 34.1875 -11.65625 C 35.21875 -13.507812 35.734375 -15.789062 35.734375 -18.5 L 35.734375 -45.8125 L 43.15625 -45.8125 L 43.15625 0 L 36.015625 0 L 36.015625 -11.125 L 37.21875 -11.125 C 35.78125 -6.863281 33.75 -3.835938 31.125 -2.046875 C 28.5 -0.265625 25.484375 0.625 22.078125 0.625 Z M 22.078125 0.625 "/></g></g></g><g fill="#f3f4f6" fill-opacity="1"><g transform="translate(105.34982, 82.67173)"><g><path d="M 23.53125 0.953125 C 19.6875 0.953125 16.296875 -0.0195312 13.359375 -1.96875 C 10.429688 -3.914062 8.144531 -6.664062 6.5 -10.21875 C 4.851562 -13.78125 4.03125 -17.984375 4.03125 -22.828125 C 4.03125 -27.640625 4.851562 -31.816406 6.5 -35.359375 C 8.144531 -38.898438 10.4375 -41.632812 13.375 -43.5625 C 16.320312 -45.5 19.707031 -46.46875 23.53125 -46.46875 C 26.289062 -46.46875 28.554688 -46.019531 30.328125 -45.125 C 32.097656 -44.226562 33.507812 -43.171875 34.5625 -41.953125 C 35.613281 -40.734375 36.445312 -39.613281 37.0625 -38.59375 L 37.515625 -38.59375 L 37.515625 -61.828125 L 44.90625 -61.828125 L 44.90625 0 L 37.765625 0 L 37.765625 -7.046875 L 37.09375 -7.046875 C 36.457031 -6.003906 35.597656 -4.859375 34.515625 -3.609375 C 33.441406 -2.367188 32.019531 -1.296875 30.25 -0.390625 C 28.476562 0.503906 26.238281 0.953125 23.53125 0.953125 Z M 24.609375 -5.640625 C 27.398438 -5.640625 29.769531 -6.363281 31.71875 -7.8125 C 33.675781 -9.269531 35.164062 -11.289062 36.1875 -13.875 C 37.207031 -16.46875 37.71875 -19.460938 37.71875 -22.859375 C 37.71875 -26.265625 37.210938 -29.238281 36.203125 -31.78125 C 35.191406 -34.332031 33.710938 -36.316406 31.765625 -37.734375 C 29.816406 -39.160156 27.429688 -39.875 24.609375 -39.875 C 21.785156 -39.875 19.398438 -39.140625 17.453125 -37.671875 C 15.503906 -36.210938 14.023438 -34.203125 13.015625 -31.640625 C 12.003906 -29.078125 11.5 -26.148438 11.5 -22.859375 C 11.5 -19.566406 12.003906 -16.617188 13.015625 -14.015625 C 14.023438 -11.421875 15.507812 -9.375 17.46875 -7.875 C 19.4375 -6.382812 21.816406 -5.640625 24.609375 -5.640625 Z M 24.609375 -5.640625 "/></g></g></g><g fill="#f3f4f6" fill-opacity="1"><g transform="translate(156.509628, 82.67173)"><g><path d="M 24.9375 18.265625 C 21.5625 18.265625 18.597656 17.8125 16.046875 16.90625 C 13.503906 16.007812 11.40625 14.78125 9.75 13.21875 C 8.09375 11.65625 6.847656 9.890625 6.015625 7.921875 L 12.328125 4.890625 C 12.929688 5.941406 13.726562 7 14.71875 8.0625 C 15.71875 9.132812 17.039062 10.019531 18.6875 10.71875 C 20.332031 11.425781 22.414062 11.78125 24.9375 11.78125 C 28.675781 11.78125 31.71875 10.867188 34.0625 9.046875 C 36.414062 7.222656 37.59375 4.414062 37.59375 0.625 L 37.59375 -8.09375 L 37.0625 -8.09375 C 36.394531 -7.039062 35.535156 -5.910156 34.484375 -4.703125 C 33.429688 -3.503906 32.019531 -2.488281 30.25 -1.65625 C 28.476562 -0.832031 26.222656 -0.421875 23.484375 -0.421875 C 19.753906 -0.421875 16.421875 -1.3125 13.484375 -3.09375 C 10.554688 -4.875 8.25 -7.457031 6.5625 -10.84375 C 4.875 -14.238281 4.03125 -18.316406 4.03125 -23.078125 C 4.03125 -27.804688 4.859375 -31.921875 6.515625 -35.421875 C 8.171875 -38.921875 10.472656 -41.632812 13.421875 -43.5625 C 16.367188 -45.5 19.765625 -46.46875 23.609375 -46.46875 C 26.347656 -46.46875 28.601562 -46.023438 30.375 -45.140625 C 32.144531 -44.253906 33.566406 -43.1875 34.640625 -41.9375 C 35.722656 -40.695312 36.582031 -39.554688 37.21875 -38.515625 L 37.765625 -38.515625 L 37.765625 -45.8125 L 44.9375 -45.8125 L 44.9375 0.953125 C 44.9375 4.992188 44.046875 8.289062 42.265625 10.84375 C 40.484375 13.40625 38.078125 15.28125 35.046875 16.46875 C 32.015625 17.664062 28.644531 18.265625 24.9375 18.265625 Z M 24.6875 -6.96875 C 27.476562 -6.96875 29.847656 -7.617188 31.796875 -8.921875 C 33.753906 -10.222656 35.238281 -12.085938 36.25 -14.515625 C 37.257812 -16.953125 37.765625 -19.847656 37.765625 -23.203125 C 37.765625 -26.492188 37.265625 -29.390625 36.265625 -31.890625 C 35.273438 -34.390625 33.800781 -36.34375 31.84375 -37.75 C 29.894531 -39.164062 27.507812 -39.875 24.6875 -39.875 C 21.84375 -39.875 19.4375 -39.144531 17.46875 -37.6875 C 15.507812 -36.238281 14.023438 -34.265625 13.015625 -31.765625 C 12.003906 -29.265625 11.5 -26.410156 11.5 -23.203125 C 11.5 -19.929688 12.007812 -17.078125 13.03125 -14.640625 C 14.050781 -12.210938 15.539062 -10.328125 17.5 -8.984375 C 19.46875 -7.640625 21.863281 -6.96875 24.6875 -6.96875 Z M 24.6875 -6.96875 "/></g></g></g><g fill="#f3f4f6" fill-opacity="1"><g transform="translate(207.710938, 82.67173)"><g><path d="M 25.4375 1 C 21.007812 1 17.191406 0.00390625 13.984375 -1.984375 C 10.773438 -3.984375 8.3125 -6.753906 6.59375 -10.296875 C 4.882812 -13.835938 4.03125 -17.941406 4.03125 -22.609375 C 4.03125 -27.285156 4.878906 -31.421875 6.578125 -35.015625 C 8.273438 -38.617188 10.679688 -41.425781 13.796875 -43.4375 C 16.910156 -45.457031 20.53125 -46.46875 24.65625 -46.46875 C 27.25 -46.46875 29.75 -46.03125 32.15625 -45.15625 C 34.5625 -44.289062 36.71875 -42.925781 38.625 -41.0625 C 40.539062 -39.195312 42.050781 -36.796875 43.15625 -33.859375 C 44.257812 -30.929688 44.8125 -27.429688 44.8125 -23.359375 L 44.8125 -20.5 L 8.796875 -20.5 L 8.796875 -26.71875 L 40.796875 -26.71875 L 37.421875 -24.484375 C 37.421875 -27.492188 36.929688 -30.160156 35.953125 -32.484375 C 34.972656 -34.816406 33.535156 -36.640625 31.640625 -37.953125 C 29.742188 -39.265625 27.414062 -39.921875 24.65625 -39.921875 C 21.914062 -39.921875 19.554688 -39.253906 17.578125 -37.921875 C 15.597656 -36.597656 14.082031 -34.835938 13.03125 -32.640625 C 11.976562 -30.441406 11.453125 -28.023438 11.453125 -25.390625 L 11.453125 -21.5 C 11.453125 -18.144531 12.023438 -15.28125 13.171875 -12.90625 C 14.316406 -10.53125 15.945312 -8.71875 18.0625 -7.46875 C 20.1875 -6.226562 22.660156 -5.609375 25.484375 -5.609375 C 27.359375 -5.609375 29.050781 -5.882812 30.5625 -6.4375 C 32.070312 -6.988281 33.363281 -7.800781 34.4375 -8.875 C 35.519531 -9.957031 36.335938 -11.285156 36.890625 -12.859375 L 44.0625 -11.28125 C 43.375 -8.875 42.171875 -6.742188 40.453125 -4.890625 C 38.742188 -3.035156 36.609375 -1.585938 34.046875 -0.546875 C 31.484375 0.484375 28.613281 1 25.4375 1 Z M 25.4375 1 "/></g></g></g><g fill="#f3f4f6" fill-opacity="1"><g transform="translate(256.381217, 82.67173)"><g><path d="M 24.734375 -45.8125 L 24.734375 -39.5 L 0.78125 -39.5 L 0.78125 -45.8125 Z M 7.921875 -57.0625 L 15.3125 -57.0625 L 15.3125 -11.703125 C 15.3125 -9.734375 15.71875 -8.300781 16.53125 -7.40625 C 17.351562 -6.507812 18.734375 -6.0625 20.671875 -6.0625 C 21.160156 -6.0625 21.769531 -6.101562 22.5 -6.1875 C 23.238281 -6.269531 23.914062 -6.351562 24.53125 -6.4375 L 25.734375 -0.203125 C 24.953125 0.015625 24.082031 0.175781 23.125 0.28125 C 22.175781 0.394531 21.242188 0.453125 20.328125 0.453125 C 16.378906 0.453125 13.320312 -0.554688 11.15625 -2.578125 C 9 -4.597656 7.921875 -7.445312 7.921875 -11.125 Z M 7.921875 -57.0625 "/></g></g></g><g fill="#f3f4f6" fill-opacity="1"><g transform="translate(283.890523, 82.67173)"><g><path d="M 7.171875 0 L 7.171875 -61.828125 L 29.171875 -61.828125 C 33.460938 -61.828125 37.023438 -61.097656 39.859375 -59.640625 C 42.691406 -58.191406 44.820312 -56.238281 46.25 -53.78125 C 47.675781 -51.320312 48.390625 -48.539062 48.390625 -45.4375 C 48.390625 -42.832031 47.929688 -40.664062 47.015625 -38.9375 C 46.097656 -37.207031 44.878906 -35.816406 43.359375 -34.765625 C 41.835938 -33.722656 40.140625 -32.921875 38.265625 -32.359375 L 38.265625 -31.875 C 40.304688 -31.707031 42.28125 -31.019531 44.1875 -29.8125 C 46.101562 -28.613281 47.6875 -26.910156 48.9375 -24.703125 C 50.195312 -22.503906 50.828125 -19.832031 50.828125 -16.6875 C 50.828125 -13.476562 50.09375 -10.617188 48.625 -8.109375 C 47.164062 -5.609375 44.882812 -3.628906 41.78125 -2.171875 C 38.6875 -0.722656 34.691406 0 29.796875 0 Z M 14.984375 -6.890625 L 29.625 -6.890625 C 34.414062 -6.890625 37.878906 -7.804688 40.015625 -9.640625 C 42.160156 -11.484375 43.234375 -13.832031 43.234375 -16.6875 C 43.234375 -18.78125 42.703125 -20.691406 41.640625 -22.421875 C 40.578125 -24.148438 39.0625 -25.519531 37.09375 -26.53125 C 35.132812 -27.539062 32.785156 -28.046875 30.046875 -28.046875 L 14.984375 -28.046875 Z M 14.984375 -34.6875 L 28.921875 -34.6875 C 31.210938 -34.6875 33.257812 -35.113281 35.0625 -35.96875 C 36.863281 -36.832031 38.28125 -38.050781 39.3125 -39.625 C 40.351562 -41.207031 40.875 -43.0625 40.875 -45.1875 C 40.875 -47.976562 39.90625 -50.300781 37.96875 -52.15625 C 36.03125 -54.007812 33.082031 -54.9375 29.125 -54.9375 L 14.984375 -54.9375 Z M 14.984375 -34.6875 "/></g></g></g><g fill="#f3f4f6" fill-opacity="1"><g transform="translate(339.199545, 82.67173)"><g><path d="M 22.078125 0.625 C 18.972656 0.625 16.234375 -0.015625 13.859375 -1.296875 C 11.484375 -2.585938 9.625 -4.523438 8.28125 -7.109375 C 6.9375 -9.703125 6.265625 -12.945312 6.265625 -16.84375 L 6.265625 -45.8125 L 13.65625 -45.8125 L 13.65625 -17.46875 C 13.65625 -13.84375 14.585938 -11.023438 16.453125 -9.015625 C 18.316406 -7.015625 20.867188 -6.015625 24.109375 -6.015625 C 26.296875 -6.015625 28.265625 -6.488281 30.015625 -7.4375 C 31.773438 -8.394531 33.164062 -9.800781 34.1875 -11.65625 C 35.21875 -13.507812 35.734375 -15.789062 35.734375 -18.5 L 35.734375 -45.8125 L 43.15625 -45.8125 L 43.15625 0 L 36.015625 0 L 36.015625 -11.125 L 37.21875 -11.125 C 35.78125 -6.863281 33.75 -3.835938 31.125 -2.046875 C 28.5 -0.265625 25.484375 0.625 22.078125 0.625 Z M 22.078125 0.625 "/></g></g></g><g fill="#f3f4f6" fill-opacity="1"><g transform="translate(388.616677, 82.67173)"><g><path d="M 23.53125 0.953125 C 19.6875 0.953125 16.296875 -0.0195312 13.359375 -1.96875 C 10.429688 -3.914062 8.144531 -6.664062 6.5 -10.21875 C 4.851562 -13.78125 4.03125 -17.984375 4.03125 -22.828125 C 4.03125 -27.640625 4.851562 -31.816406 6.5 -35.359375 C 8.144531 -38.898438 10.4375 -41.632812 13.375 -43.5625 C 16.320312 -45.5 19.707031 -46.46875 23.53125 -46.46875 C 26.289062 -46.46875 28.554688 -46.019531 30.328125 -45.125 C 32.097656 -44.226562 33.507812 -43.171875 34.5625 -41.953125 C 35.613281 -40.734375 36.445312 -39.613281 37.0625 -38.59375 L 37.515625 -38.59375 L 37.515625 -61.828125 L 44.90625 -61.828125 L 44.90625 0 L 37.765625 0 L 37.765625 -7.046875 L 37.09375 -7.046875 C 36.457031 -6.003906 35.597656 -4.859375 34.515625 -3.609375 C 33.441406 -2.367188 32.019531 -1.296875 30.25 -0.390625 C 28.476562 0.503906 26.238281 0.953125 23.53125 0.953125 Z M 24.609375 -5.640625 C 27.398438 -5.640625 29.769531 -6.363281 31.71875 -7.8125 C 33.675781 -9.269531 35.164062 -11.289062 36.1875 -13.875 C 37.207031 -16.46875 37.71875 -19.460938 37.71875 -22.859375 C 37.71875 -26.265625 37.210938 -29.238281 36.203125 -31.78125 C 35.191406 -34.332031 33.710938 -36.316406 31.765625 -37.734375 C 29.816406 -39.160156 27.429688 -39.875 24.609375 -39.875 C 21.785156 -39.875 19.398438 -39.140625 17.453125 -37.671875 C 15.503906 -36.210938 14.023438 -34.203125 13.015625 -31.640625 C 12.003906 -29.078125 11.5 -26.148438 11.5 -22.859375 C 11.5 -19.566406 12.003906 -16.617188 13.015625 -14.015625 C 14.023438 -11.421875 15.507812 -9.375 17.46875 -7.875 C 19.4375 -6.382812 21.816406 -5.640625 24.609375 -5.640625 Z M 24.609375 -5.640625 "/></g></g></g><g fill="#f3f4f6" fill-opacity="1"><g transform="translate(439.776497, 82.67173)"><g><path d="M 23.53125 0.953125 C 19.6875 0.953125 16.296875 -0.0195312 13.359375 -1.96875 C 10.429688 -3.914062 8.144531 -6.664062 6.5 -10.21875 C 4.851562 -13.78125 4.03125 -17.984375 4.03125 -22.828125 C 4.03125 -27.640625 4.851562 -31.816406 6.5 -35.359375 C 8.144531 -38.898438 10.4375 -41.632812 13.375 -43.5625 C 16.320312 -45.5 19.707031 -46.46875 23.53125 -46.46875 C 26.289062 -46.46875 28.554688 -46.019531 30.328125 -45.125 C 32.097656 -44.226562 33.507812 -43.171875 34.5625 -41.953125 C 35.613281 -40.734375 36.445312 -39.613281 37.0625 -38.59375 L 37.515625 -38.59375 L 37.515625 -61.828125 L 44.90625 -61.828125 L 44.90625 0 L 37.765625 0 L 37.765625 -7.046875 L 37.09375 -7.046875 C 36.457031 -6.003906 35.597656 -4.859375 34.515625 -3.609375 C 33.441406 -2.367188 32.019531 -1.296875 30.25 -0.390625 C 28.476562 0.503906 26.238281 0.953125 23.53125 0.953125 Z M 24.609375 -5.640625 C 27.398438 -5.640625 29.769531 -6.363281 31.71875 -7.8125 C 33.675781 -9.269531 35.164062 -11.289062 36.1875 -13.875 C 37.207031 -16.46875 37.71875 -19.460938 37.71875 -22.859375 C 37.71875 -26.265625 37.210938 -29.238281 36.203125 -31.78125 C 35.191406 -34.332031 33.710938 -36.316406 31.765625 -37.734375 C 29.816406 -39.160156 27.429688 -39.875 24.609375 -39.875 C 21.785156 -39.875 19.398438 -39.140625 17.453125 -37.671875 C 15.503906 -36.210938 14.023438 -34.203125 13.015625 -31.640625 C 12.003906 -29.078125 11.5 -26.148438 11.5 -22.859375 C 11.5 -19.566406 12.003906 -16.617188 13.015625 -14.015625 C 14.023438 -11.421875 15.507812 -9.375 17.46875 -7.875 C 19.4375 -6.382812 21.816406 -5.640625 24.609375 -5.640625 Z M 24.609375 -5.640625 "/></g></g></g><g fill="#f3f4f6" fill-opacity="1"><g transform="translate(491.351257, 82.67173)"><g><path d="M 5.765625 16.9375 L 7.21875 10.5 L 8.796875 10.671875 C 10.179688 10.972656 11.441406 11.007812 12.578125 10.78125 C 13.710938 10.5625 14.726562 9.953125 15.625 8.953125 C 16.519531 7.960938 17.316406 6.472656 18.015625 4.484375 L 19.59375 0.125 L 2.03125 -45.8125 L 10.078125 -45.8125 L 19.875 -18.796875 C 20.875 -16.109375 21.734375 -13.429688 22.453125 -10.765625 C 23.171875 -8.097656 23.914062 -5.503906 24.6875 -2.984375 L 22.15625 -2.984375 C 22.9375 -5.503906 23.691406 -8.097656 24.421875 -10.765625 C 25.148438 -13.429688 26 -16.109375 26.96875 -18.796875 L 36.8125 -45.8125 L 44.78125 -45.8125 L 24.4375 7.171875 C 23.550781 9.523438 22.460938 11.476562 21.171875 13.03125 C 19.890625 14.582031 18.398438 15.726562 16.703125 16.46875 C 15.003906 17.21875 13.085938 17.59375 10.953125 17.59375 C 9.765625 17.59375 8.710938 17.515625 7.796875 17.359375 C 6.890625 17.210938 6.210938 17.070312 5.765625 16.9375 Z M 5.765625 16.9375 "/></g></g></g></g></g></svg>